<svg id="Layer_1" data-name="Layer 1" xmlns="http://www.w3.org/2000/svg" xmlns:xlink="http://www.w3.org/1999/xlink" width="89.67mm" height="58.37mm" viewBox="0 0 254.17 165.46"><defs><style>.cls-1{opacity:0.33;isolation:isolate;}.cls-2{fill:#363636;}.cls-3{fill:#292929;}.cls-4{fill:gold;}.cls-4,.cls-5{stroke:silver;stroke-miterlimit:10;stroke-width:0.25px;}.cls-5{fill:none;}</style></defs><title>credit-card-dark</title><g id="Layer_1-2" data-name="Layer 1"><image class="cls-1" width="255" height="166" xlink:href="../6706C6F5956E50BD.png"/><path class="cls-2" d="M17.4,3.8H237.1a11.5,11.5,0,0,1,11.5,11.5V145.4a11.5,11.5,0,0,1-11.5,11.5H17.4A11.5,11.5,0,0,1,5.9,145.4V15.2A11.55,11.55,0,0,1,17.4,3.8Z" transform="translate(-0.42 0.23)"/><path class="cls-3" d="M29,89.7H63.9A2.26,2.26,0,0,1,66.2,92v10.5a2.26,2.26,0,0,1-2.3,2.3H29a2.26,2.26,0,0,1-2.3-2.3V92A2.26,2.26,0,0,1,29,89.7Z" transform="translate(-0.42 0.23)"/><path class="cls-4" d="M29,55.8H48.8a2.26,2.26,0,0,1,2.3,2.3V78a2.26,2.26,0,0,1-2.3,2.3H29A2.26,2.26,0,0,1,26.7,78V58.1A2.33,2.33,0,0,1,29,55.8Z" transform="translate(-0.42 0.23)"/><path class="cls-3" d="M29,130.9H41.1a2.26,2.26,0,0,1,2.3,2.3v5a2.26,2.26,0,0,1-2.3,2.3H29a2.26,2.26,0,0,1-2.3-2.3v-5A2.33,2.33,0,0,1,29,130.9Z" transform="translate(-0.42 0.23)"/><path class="cls-3" d="M50.1,130.9H75a2.26,2.26,0,0,1,2.3,2.3v5a2.26,2.26,0,0,1-2.3,2.3H50.1a2.26,2.26,0,0,1-2.3-2.3v-5A2.4,2.4,0,0,1,50.1,130.9Z" transform="translate(-0.42 0.23)"/><path class="cls-3" d="M102.1,130.9H208.8a2.26,2.26,0,0,1,2.3,2.3v5a2.26,2.26,0,0,1-2.3,2.3H102.1a2.26,2.26,0,0,1-2.3-2.3v-5A2.33,2.33,0,0,1,102.1,130.9Z" transform="translate(-0.42 0.23)"/><path class="cls-3" d="M77.3,89.7h34.9a2.26,2.26,0,0,1,2.3,2.3v10.5a2.26,2.26,0,0,1-2.3,2.3H77.3a2.26,2.26,0,0,1-2.3-2.3V92A2.26,2.26,0,0,1,77.3,89.7Z" transform="translate(-0.42 0.23)"/><path class="cls-3" d="M125.5,89.7h34.9a2.26,2.26,0,0,1,2.3,2.3v10.5a2.26,2.26,0,0,1-2.3,2.3H125.5a2.26,2.26,0,0,1-2.3-2.3V92A2.33,2.33,0,0,1,125.5,89.7Z" transform="translate(-0.42 0.23)"/><path class="cls-3" d="M173.8,89.7h34.9A2.26,2.26,0,0,1,211,92v10.5a2.26,2.26,0,0,1-2.3,2.3H173.8a2.26,2.26,0,0,1-2.3-2.3V92A2.33,2.33,0,0,1,173.8,89.7Z" transform="translate(-0.42 0.23)"/><path class="cls-3" d="M179.7,21.1h29a2.26,2.26,0,0,1,2.3,2.3v16a2.26,2.26,0,0,1-2.3,2.3h-29a2.26,2.26,0,0,1-2.3-2.3v-16A2.33,2.33,0,0,1,179.7,21.1Z" transform="translate(-0.42 0.23)"/><rect class="cls-5" x="35.98" y="65.83" width="4.9" height="4.9"/><line class="cls-5" x1="38.48" y1="65.83" x2="38.48" y2="56.03"/><line class="cls-5" x1="38.48" y1="70.73" x2="38.48" y2="80.53"/><line class="cls-5" x1="35.98" y1="68.33" x2="26.28" y2="68.33"/><line class="cls-5" x1="40.98" y1="68.33" x2="50.68" y2="68.33"/><polyline class="cls-5" points="26.28 62.43 33.08 62.43 35.98 65.83"/><polyline class="cls-5" points="50.68 62.43 43.88 62.43 40.98 65.83"/><polyline class="cls-5" points="26.28 74.13 33.08 74.13 35.98 70.73"/><polyline class="cls-5" points="50.68 74.13 43.88 74.13 40.98 70.73"/></g></svg>